<?xml version="1.0" encoding="UTF-8"?>
<svg width="48" height="48" viewBox="0 0 48 48" xmlns="http://www.w3.org/2000/svg">
  <defs>
    <linearGradient id="logoGradient" x1="0%" y1="0%" x2="100%" y2="100%">
      <stop offset="0%" style="stop-color:#003366;stop-opacity:1" />
      <stop offset="100%" style="stop-color:#9D00FF;stop-opacity:1" />
    </linearGradient>
    <filter id="glow">
      <feGaussianBlur stdDeviation="1" result="coloredBlur"/>
      <feMerge>
        <feMergeNode in="coloredBlur"/>
        <feMergeNode in="SourceGraphic"/>
      </feMerge>
    </filter>
  </defs>
  
  <!-- 外层齿轮 -->
  <g filter="url(#glow)">
    <path d="M24 0c-2.4 0-4.8.3-7.1.9l-1.1 4.2c-1.9.7-3.6 1.7-5.2 2.9l-4-1.5c-1.8 1.8-3.3 3.9-4.5 6.2l2.2 3.7c-.7 1.9-1.1 3.9-1.2 5.9l-3.6 2.1c.2 2.4.8 4.7 1.8 6.9l4-.3c1.1 1.7 2.4 3.2 4 4.4l.3 4c2.2 1 4.5 1.6 6.9 1.8l2.1-3.6c2 -.1 4-.5 5.9-1.2l3.7 2.2c2.3-1.2 4.4-2.7 6.2-4.5l-1.5-4c1.2-1.6 2.2-3.3 2.9-5.2l4.2-1.1c.6-2.3.9-4.7.9-7.1 0-2.4-.3-4.8-.9-7.1l-4.2-1.1c-.7-1.9-1.7-3.6-2.9-5.2l1.5-4c-1.8-1.8-3.9-3.3-6.2-4.5l-3.7 2.2c-1.9-.7-3.9-1.1-5.9-1.2l-2.1-3.6z" fill="url(#logoGradient)"/>
  </g>
  
  <!-- 内层标靶 -->
  <g transform="translate(24,24)" filter="url(#glow)">
    <circle r="12" fill="none" stroke="#ffffff" stroke-width="2"/>
    <circle r="8" fill="none" stroke="#ffffff" stroke-width="2"/>
    <circle r="4" fill="#ffffff"/>
    <path d="M-16 0h32M0 -16v32" stroke="#ffffff" stroke-width="1"/>
  </g>
  
  <!-- 动画效果 -->
  <style>
    @keyframes pulse {
      0% { opacity: 0.8; transform: scale(1); }
      50% { opacity: 1; transform: scale(1.05); }
      100% { opacity: 0.8; transform: scale(1); }
    }
    g { animation: pulse 2s infinite ease-in-out; }
  </style>
</svg>